<?xml version="1.0" encoding="UTF-8" standalone="no"?>
<!DOCTYPE svg PUBLIC "-//W3C//DTD SVG 1.1//EN" "http://www.w3.org/Graphics/SVG/1.1/DTD/svg11.dtd">
<svg width="100%" height="100%" viewBox="0 0 748 1015" version="1.1" xmlns="http://www.w3.org/2000/svg" xmlns:xlink="http://www.w3.org/1999/xlink" xml:space="preserve" style="fill-rule:evenodd;clip-rule:evenodd;stroke-miterlimit:22.9256;">
    <g id="Warstwa-1" transform="matrix(4.02315,0,0,4.02315,-695.31,-1006.83)">
        <g>
            <text x="176.044px" y="406.831px" style="font-family:'BebasNeueBook', 'Bebas Neue';font-size:24px;fill:rgb(28,25,23);">S</text>
            <text x="191.444px" y="406.831px" style="font-family:'BebasNeueBook', 'Bebas Neue';font-size:24px;fill:rgb(28,25,23);">Z</text>
            <text x="206.376px" y="406.831px" style="font-family:'BebasNeueBook', 'Bebas Neue';font-size:24px;fill:rgb(28,25,23);">K</text>
            <text x="223.992px" y="406.831px" style="font-family:'BebasNeueBook', 'Bebas Neue';font-size:24px;fill:rgb(28,25,23);">O <tspan x="248.257px " y="406.831px ">Ł</tspan></text>
            <text x="264.105px" y="406.831px" style="font-family:'BebasNeueBook', 'Bebas Neue';font-size:24px;fill:rgb(28,25,23);">A <tspan x="301.881px 311.121px 323.166px " y="406.831px 406.831px 406.831px ">D L</tspan></text>
            <text x="337.676px" y="406.831px" style="font-family:'BebasNeueBook', 'Bebas Neue';font-size:24px;fill:rgb(28,25,23);">A</text>
        </g>
        <g>
            <text x="176.044px" y="435.423px" style="font-family:'BebasNeueBook', 'Bebas Neue';font-size:24px;fill:rgb(28,25,23);">D</text>
            <text x="197.699px" y="435.423px" style="font-family:'BebasNeueBook', 'Bebas Neue';font-size:24px;fill:rgb(28,25,23);">O <tspan x="222.392px " y="435.423px ">R</tspan></text>
            <text x="240.936px" y="435.423px" style="font-family:'BebasNeueBook', 'Bebas Neue';font-size:24px;fill:rgb(28,25,23);">O <tspan x="265.629px " y="435.423px ">S</tspan></text>
            <text x="281.281px" y="435.423px" style="font-family:'BebasNeueBook', 'Bebas Neue';font-size:24px;fill:rgb(28,25,23);">Ł</text>
            <text x="297.635px" y="435.423px" style="font-family:'BebasNeueBook', 'Bebas Neue';font-size:24px;fill:rgb(28,25,23);">Y</text>
            <text x="315.62px" y="435.423px" style="font-family:'BebasNeueBook', 'Bebas Neue';font-size:24px;fill:rgb(28,25,23);">C</text>
            <text x="339.101px" y="435.423px" style="font-family:'BebasNeueBook', 'Bebas Neue';font-size:24px;fill:rgb(28,25,23);">H</text>
        </g>
        <g>
            <text x="176.043px" y="464.015px" style="font-family:'BebasNeueBook', 'Bebas Neue';font-size:24px;fill:rgb(28,25,23);">W</text>
            <text x="205.701px" y="464.015px" style="font-family:'BebasNeueBook', 'Bebas Neue';font-size:24px;fill:rgb(28,25,23);">G</text>
            <text x="226.694px" y="464.015px" style="font-family:'BebasNeueBook', 'Bebas Neue';font-size:24px;fill:rgb(28,25,23);">A</text>
            <text x="244.408px" y="464.015px" style="font-family:'BebasNeueBook', 'Bebas Neue';font-size:24px;fill:rgb(28,25,23);">R <tspan x="258.992px " y="464.015px ">W</tspan></text>
            <text x="282.001px" y="464.015px" style="font-family:'BebasNeueBook', 'Bebas Neue';font-size:24px;fill:rgb(28,25,23);">O</text>
            <text x="302.9px" y="464.015px" style="font-family:'BebasNeueBook', 'Bebas Neue';font-size:24px;fill:rgb(28,25,23);">L</text>
            <text x="313.99px" y="464.015px" style="font-family:'BebasNeueBook', 'Bebas Neue';font-size:24px;fill:rgb(28,25,23);">I</text>
            <text x="319.414px" y="464.015px" style="font-family:'BebasNeueBook', 'Bebas Neue';font-size:24px;fill:rgb(28,25,23);">N</text>
            <text x="337.12px" y="464.015px" style="font-family:'BebasNeueBook', 'Bebas Neue';font-size:24px;fill:rgb(28,25,23);">I</text>
            <text x="342.594px" y="464.015px" style="font-family:'BebasNeueBook', 'Bebas Neue';font-size:24px;fill:rgb(28,25,23);">E</text>
        </g>
        <g>
            <text x="176.043px" y="492.607px" style="font-family:'BebasNeueBook', 'Bebas Neue';font-size:24px;fill:rgb(28,25,23);">W</text>
            <text x="206.493px" y="492.607px" style="font-family:'BebasNeueBook', 'Bebas Neue';font-size:24px;fill:rgb(28,25,23);">I</text>
            <text x="219.259px" y="492.607px" style="font-family:'BebasNeueBook', 'Bebas Neue';font-size:24px;fill:rgb(28,25,23);">E</text>
            <text x="239.503px" y="492.607px" style="font-family:'BebasNeueBook', 'Bebas Neue';font-size:24px;fill:rgb(28,25,23);">D</text>
            <text x="264.722px" y="492.607px" style="font-family:'BebasNeueBook', 'Bebas Neue';font-size:24px;fill:rgb(28,25,23);">Z</text>
            <text x="283.578px" y="492.607px" style="font-family:'BebasNeueBook', 'Bebas Neue';font-size:24px;fill:rgb(28,25,23);">A</text>
            <text x="308.733px" y="492.607px" style="font-family:'BebasNeueBook', 'Bebas Neue';font-size:24px;fill:rgb(28,25,23);">.</text>
            <text x="322.762px" y="492.607px" style="font-family:'BebasNeueBook', 'Bebas Neue';font-size:24px;fill:rgb(28,25,23);">P</text>
            <text x="344.356px" y="492.607px" style="font-family:'BebasNeueBook', 'Bebas Neue';font-size:24px;fill:rgb(28,25,23);">L</text>
        </g>
        <path d="M249.092,269.851C264.475,269.851 276.945,282.322 276.945,297.704C276.945,313.088 264.475,325.558 249.092,325.558C233.709,325.558 221.239,313.088 221.239,297.704C221.239,282.322 233.709,269.851 249.092,269.851" style="fill:rgb(239,125,33);"/>
        <path d="M309.739,290.417L309.739,291.472L309.211,291.472L309.211,291.999L308.684,291.999L308.684,292.527L308.157,292.527L308.157,293.054L307.629,293.054L307.629,293.581L307.102,293.581L307.102,294.109L306.575,294.109L306.575,294.636L305.52,294.636L305.52,295.163L304.993,295.163L304.993,296.218L303.938,296.218L303.938,296.746L303.411,296.746L303.411,297.273L301.301,297.273L301.301,298.328L300.774,298.328L300.774,298.855L299.192,298.855L299.192,299.382L290.754,299.382L290.754,299.91L291.281,299.91L291.281,300.437L291.808,300.437L291.808,302.019L291.281,302.019L291.281,303.074L291.808,303.074L291.808,302.546L292.336,302.546L292.336,302.019L293.39,302.019L293.39,302.546L293.918,302.546L293.918,303.074L294.445,303.074L294.445,304.656L294.972,304.656L294.972,305.71L295.5,305.71L295.5,306.765L296.028,306.765L296.028,307.292L296.555,307.292L296.555,310.984L297.082,310.984L297.082,313.094L298.137,313.094L298.137,317.312L298.664,317.312L298.664,318.894L299.719,318.894L299.719,319.949L300.246,319.949L300.246,322.059L300.774,322.059L300.774,323.113L301.301,323.113L301.301,327.332L300.774,327.332L300.774,327.859L300.246,327.859L300.246,328.387L292.336,328.387L292.336,328.914L291.808,328.914L291.808,347.899L291.281,347.899L291.281,348.426L290.226,348.426L290.226,350.008L289.699,350.008L289.699,351.591L289.172,351.591L289.172,352.118L288.644,352.118L288.644,353.173L288.117,353.173L288.117,353.7L287.062,353.7L287.062,354.228L286.535,354.228L286.535,354.755L285.48,354.755L285.48,355.282L284.425,355.282L284.425,355.81L282.316,355.81L282.316,356.337L281.261,356.337L281.261,356.864L269.132,356.864L269.132,357.392L268.605,357.392L268.605,377.431L296.555,377.431L296.555,354.755L297.082,354.755L297.082,354.228L298.137,354.228L298.137,353.7L309.211,353.7L309.211,353.173L310.793,353.173L310.793,352.646L313.957,352.646L313.957,352.118L314.485,352.118L314.485,351.064L315.539,351.064L315.539,350.536L316.067,350.536L316.067,347.372L317.649,347.372L317.649,326.277L318.177,326.277L318.177,325.223L319.231,325.223L319.231,324.695L328.196,324.695L328.196,323.641L327.669,323.641L327.669,321.004L327.142,321.004L327.142,319.949L326.614,319.949L326.614,319.422L326.087,319.422L326.087,317.312L325.559,317.312L325.559,315.203L325.032,315.203L325.032,314.148L324.505,314.148L324.505,313.621L323.977,313.621L323.977,311.512L323.45,311.512L323.45,310.984L322.395,310.984L322.395,305.71L321.868,305.71L321.868,305.183L321.341,305.183L321.341,304.656L320.813,304.656L320.813,302.546L320.286,302.546L320.286,300.964L319.759,300.964L319.759,298.855L319.231,298.855L319.231,297.8L318.703,297.8L318.703,294.636L318.177,294.636L318.177,289.363L317.649,289.363L317.649,286.198L317.121,286.198L317.121,283.034L316.067,283.034L316.067,281.979L315.539,281.979L315.539,280.925L315.013,280.925L315.013,280.397L314.485,280.397L314.485,278.815L313.957,278.815L313.957,278.288L313.43,278.288L313.43,282.507L312.903,282.507L312.903,286.198L312.375,286.198L312.375,286.725L311.848,286.725L311.848,289.363L311.321,289.363L311.321,289.89L310.793,289.89L310.793,290.417L309.739,290.417Z" style="fill:rgb(112,111,110);"/>
        <path d="M281.261,269.323L282.316,269.323L282.316,269.85L282.844,269.85L282.844,270.378L283.898,270.378L283.898,272.487L284.953,272.487L284.953,274.069L285.48,274.069L285.48,275.651L286.008,275.651L286.008,276.178L286.535,276.178L286.535,277.76L287.062,277.76L287.062,278.815L287.59,278.815L287.59,279.87L288.117,279.87L288.117,280.397L288.644,280.397L288.644,283.034L290.226,283.034L290.226,288.307L289.172,288.307L289.172,289.363L290.226,289.363L290.226,295.163L297.082,295.163L297.082,294.636L298.137,294.636L298.137,294.109L300.246,294.109L300.246,293.581L300.774,293.581L300.774,293.054L301.301,293.054L301.301,292.527L302.883,292.527L302.883,291.999L303.411,291.999L303.411,291.472L303.938,291.472L303.938,290.945L304.465,290.945L304.465,290.417L305.52,290.417L305.52,289.89L306.047,289.89L306.047,288.307L306.575,288.307L306.575,287.253L307.102,287.253L307.102,286.198L307.629,286.198L307.629,284.616L308.157,284.616L308.157,284.089L308.684,284.089L308.684,276.706L308.157,276.706L308.157,273.014L307.629,273.014L307.629,272.487L307.102,272.487L307.102,271.96L306.575,271.96L306.575,270.905L306.047,270.905L306.047,270.378L305.52,270.378L305.52,269.85L304.993,269.85L304.993,269.323L304.465,269.323L304.465,268.796L303.938,268.796L303.938,268.268L303.411,268.268L303.411,267.741L302.356,267.741L302.356,267.214L301.828,267.214L301.828,266.686L301.301,266.686L301.301,266.158L300.774,266.158L300.774,265.632L300.246,265.632L300.246,265.104L299.719,265.104L299.719,264.576L299.192,264.576L299.192,264.049L298.137,264.049L298.137,263.522L297.082,263.522L297.082,262.994L296.555,262.994L296.555,262.467L295.5,262.467L295.5,261.94L294.972,261.94L294.972,261.412L293.39,261.412L293.39,260.885L291.808,260.885L291.808,260.358L290.226,260.358L290.226,259.83L289.172,259.83L289.172,259.303L285.48,259.303L285.48,258.776L280.734,258.776L280.734,258.248L274.406,258.248L274.406,258.776L272.297,258.776L272.297,259.83L271.769,259.83L271.769,260.358L272.297,260.358L272.297,260.885L273.351,260.885L273.351,261.412L273.879,261.412L273.879,262.467L274.406,262.467L274.406,262.994L274.933,262.994L274.933,263.522L275.461,263.522L275.461,264.049L276.515,264.049L276.515,265.104L277.043,265.104L277.043,265.632L278.625,265.632L278.625,266.158L279.152,266.158L279.152,266.686L279.679,266.686L279.679,267.214L280.207,267.214L280.207,267.741L280.734,267.741L280.734,268.796L281.261,268.796L281.261,269.323Z" style="fill:rgb(112,111,110);stroke:rgb(28,25,23);stroke-width:0.22px;"/>
        <path d="M238.545,255.611L238.545,256.139L237.491,256.139L237.491,256.666L236.436,256.666L236.436,257.193L234.854,257.193L234.854,257.721L234.327,257.721L234.327,258.248L232.744,258.248L232.744,259.303L231.163,259.303L231.163,259.83L229.581,259.83L229.581,260.885L229.053,260.885L229.053,261.412L225.889,261.412L225.889,262.467L224.307,262.467L224.307,264.576L222.725,264.576L222.725,265.632L222.197,265.632L222.197,266.158L221.143,266.158L221.143,266.686L220.615,266.686L220.615,267.741L219.561,267.741L219.561,268.796L219.033,268.796L219.033,269.323L217.451,269.323L217.451,269.85L216.924,269.85L216.924,270.378L216.396,270.378L216.396,270.905L215.869,270.905L215.869,271.96L215.342,271.96L215.342,272.487L214.814,272.487L214.814,273.014L214.287,273.014L214.287,274.069L213.76,274.069L213.76,274.596L213.232,274.596L213.232,275.124L212.178,275.124L212.178,276.706L211.65,276.706L211.65,277.76L211.122,277.76L211.122,281.452L210.595,281.452L210.595,282.507L210.068,282.507L210.068,284.089L209.54,284.089L209.54,286.198L209.013,286.198L209.013,287.78L207.958,287.78L207.958,290.945L207.431,290.945L207.431,306.238L207.958,306.238L207.958,308.347L208.486,308.347L208.486,309.402L209.013,309.402L209.013,312.566L209.54,312.566L209.54,315.203L210.068,315.203L210.068,316.258L211.122,316.258L211.122,317.312L211.65,317.312L211.65,318.367L212.178,318.367L212.178,319.422L212.705,319.422L212.705,321.531L213.232,321.531L213.232,323.113L213.76,323.113L213.76,323.641L214.287,323.641L214.287,324.695L214.814,324.695L214.814,327.332L215.342,327.332L215.342,327.859L215.869,327.859L215.869,329.441L216.396,329.441L216.396,333.133L216.924,333.133L216.924,333.661L217.451,333.661L217.451,335.77L217.978,335.77L217.978,336.297L219.033,336.297L219.033,337.879L219.561,337.879L219.561,339.989L220.088,339.989L220.088,341.043L220.615,341.043L220.615,341.571L221.143,341.571L221.143,343.68L221.67,343.68L221.67,344.735L222.197,344.735L222.197,347.372L222.725,347.372L222.725,377.431L225.361,377.431L225.361,350.008L224.834,350.008L224.834,348.954L224.307,348.954L224.307,346.844L223.779,346.844L223.779,341.571L223.252,341.571L223.252,340.516L222.725,340.516L222.725,339.461L222.197,339.461L222.197,338.934L221.67,338.934L221.67,336.297L221.143,336.297L221.143,333.661L220.615,333.661L220.615,331.023L220.088,331.023L220.088,330.497L219.561,330.497L219.561,329.969L219.033,329.969L219.033,327.332L218.506,327.332L218.506,326.805L217.978,326.805L217.978,324.695L217.451,324.695L217.451,322.586L216.924,322.586L216.924,322.059L216.396,322.059L216.396,321.531L215.342,321.531L215.342,320.477L214.814,320.477L214.814,319.949L214.287,319.949L214.287,318.894L213.76,318.894L213.76,314.676L213.232,314.676L213.232,313.621L212.178,313.621L212.178,309.929L211.65,309.929L211.65,307.82L211.122,307.82L211.122,306.765L210.595,306.765L210.595,290.945L211.122,290.945L211.122,286.725L211.65,286.725L211.65,286.198L212.178,286.198L212.178,283.034L212.705,283.034L212.705,281.979L213.232,281.979L213.232,280.925L213.76,280.925L213.76,280.397L214.287,280.397L214.287,278.815L214.814,278.815L214.814,278.288L215.342,278.288L215.342,277.233L215.869,277.233L215.869,276.178L216.396,276.178L216.396,275.651L216.924,275.651L216.924,275.124L217.451,275.124L217.451,273.542L218.506,273.542L218.506,271.96L219.561,271.96L219.561,270.905L220.088,270.905L220.088,270.378L221.143,270.378L221.143,269.323L221.67,269.323L221.67,268.796L222.197,268.796L222.197,268.268L222.725,268.268L222.725,267.741L223.252,267.741L223.252,266.686L223.779,266.686L223.779,265.632L225.361,265.632L225.361,265.104L226.416,265.104L226.416,264.576L226.943,264.576L226.943,264.049L227.471,264.049L227.471,263.522L229.581,263.522L229.581,262.994L230.107,262.994L230.107,261.94L233.271,261.94L233.271,261.412L234.327,261.412L234.327,260.358L236.436,260.358L236.436,259.83L238.018,259.83L238.018,259.303L240.127,259.303L240.127,258.776L241.709,258.776L241.709,258.248L243.292,258.248L243.292,257.721L253.312,257.721L253.312,258.248L255.948,258.248L255.948,258.776L258.058,258.776L258.058,259.303L260.167,259.303L260.167,259.83L261.222,259.83L261.222,260.358L263.331,260.358L263.331,260.885L265.441,260.885L265.441,261.412L265.968,261.412L265.968,261.94L267.023,261.94L267.023,262.994L268.077,262.994L268.077,263.522L268.605,263.522L268.605,264.049L271.769,264.049L271.769,264.576L272.297,264.576L272.297,265.104L273.879,265.104L273.879,265.632L274.406,265.632L274.406,266.686L275.461,266.686L275.461,267.741L275.988,267.741L275.988,268.796L277.57,268.796L277.57,270.378L279.152,270.378L279.152,271.96L280.207,271.96L280.207,273.542L280.734,273.542L280.734,274.069L281.789,274.069L281.789,275.124L282.316,275.124L282.316,275.651L283.371,275.651L283.371,277.233L283.898,277.233L283.898,278.815L284.953,278.815L284.953,280.397L285.48,280.397L285.48,282.507L286.008,282.507L286.008,283.034L286.535,283.034L286.535,286.725L287.062,286.725L287.062,287.253L289.699,287.253L289.699,283.034L288.644,283.034L288.644,280.397L288.117,280.397L288.117,279.87L287.59,279.87L287.59,278.815L287.062,278.815L287.062,277.76L286.535,277.76L286.535,276.178L286.008,276.178L286.008,275.651L285.48,275.651L285.48,274.069L284.953,274.069L284.953,273.542L284.425,273.542L284.425,273.014L283.371,273.014L283.371,270.905L281.789,270.905L281.789,270.378L281.261,270.378L281.261,269.323L279.679,269.323L279.679,268.796L279.152,268.796L279.152,268.268L278.625,268.268L278.625,267.741L278.097,267.741L278.097,267.214L277.57,267.214L277.57,266.686L277.043,266.686L277.043,266.158L276.515,266.158L276.515,265.632L275.988,265.632L275.988,265.104L275.461,265.104L275.461,264.576L273.879,264.576L273.879,264.049L273.351,264.049L273.351,262.994L272.823,262.994L272.823,262.467L271.769,262.467L271.769,261.94L271.241,261.94L271.241,261.412L270.187,261.412L270.187,260.885L269.659,260.885L269.659,257.721L270.187,257.721L270.187,257.193L283.371,257.193L283.371,257.721L286.008,257.721L286.008,258.248L287.062,258.248L287.062,258.776L289.699,258.776L289.699,259.303L291.808,259.303L291.808,260.358L293.918,260.358L293.918,260.885L295.5,260.885L295.5,261.412L296.028,261.412L296.028,261.94L298.664,261.94L298.664,262.994L299.192,262.994L299.192,263.522L300.246,263.522L300.246,264.049L300.774,264.049L300.774,264.576L301.301,264.576L301.301,265.104L303.411,265.104L303.411,265.632L303.938,265.632L303.938,266.686L304.993,266.686L304.993,267.214L305.52,267.214L305.52,268.268L306.575,268.268L306.575,268.796L307.102,268.796L307.102,269.323L307.629,269.323L307.629,270.378L308.157,270.378L308.157,271.432L308.684,271.432L308.684,274.596L309.211,274.596L309.211,276.178L310.266,276.178L310.266,273.014L310.793,273.014L310.793,273.542L311.321,273.542L311.321,277.76L312.375,277.76L312.375,274.596L311.848,274.596L311.848,273.014L311.321,273.014L311.321,270.905L310.793,270.905L310.793,269.85L310.266,269.85L310.266,269.323L309.739,269.323L309.739,267.741L309.211,267.741L309.211,267.214L308.157,267.214L308.157,266.158L306.047,266.158L306.047,264.576L303.411,264.576L303.411,264.049L302.883,264.049L302.883,262.994L301.828,262.994L301.828,262.467L301.301,262.467L301.301,261.412L299.719,261.412L299.719,260.885L299.192,260.885L299.192,260.358L298.137,260.358L298.137,259.83L297.61,259.83L297.61,259.303L294.445,259.303L294.445,258.776L293.39,258.776L293.39,258.248L292.863,258.248L292.863,257.721L290.754,257.721L290.754,257.193L290.226,257.193L290.226,256.666L289.172,256.666L289.172,256.139L285.48,256.139L285.48,255.611L282.316,255.611L282.316,255.084L270.187,255.084L270.187,256.139L269.132,256.139L269.132,256.666L266.495,256.666L266.495,257.193L265.968,257.193L265.968,257.721L262.276,257.721L262.276,257.193L260.694,257.193L260.694,256.666L259.64,256.666L259.64,256.139L258.585,256.139L258.585,255.611L255.948,255.611L255.948,255.084L241.182,255.084L241.182,255.611L238.545,255.611Z" style="fill:rgb(28,25,23);stroke:rgb(28,25,23);stroke-width:0.22px;"/>
        <path d="M231.163,286.198L231.163,287.78L230.635,287.78L230.635,289.363L230.107,289.363L230.107,289.89L229.581,289.89L229.581,292.527L229.053,292.527L229.053,301.491L229.581,301.491L229.581,303.074L230.107,303.074L230.107,303.601L230.635,303.601L230.635,304.656L231.163,304.656L231.163,307.82L231.689,307.82L231.689,308.347L232.744,308.347L232.744,309.402L233.799,309.402L233.799,309.929L234.327,309.929L234.327,311.512L235.381,311.512L235.381,312.038L235.909,312.038L235.909,313.094L237.491,313.094L237.491,313.621L238.018,313.621L238.018,314.148L238.545,314.148L238.545,314.676L239.6,314.676L239.6,315.203L240.655,315.203L240.655,315.73L241.182,315.73L241.182,316.785L244.346,316.785L244.346,317.312L246.456,317.312L246.456,317.84L251.73,317.84L251.73,317.312L254.366,317.312L254.366,316.785L254.894,316.785L254.894,316.258L256.476,316.258L256.476,315.203L258.058,315.203L258.058,314.676L259.64,314.676L259.64,314.148L260.167,314.148L260.167,313.621L261.749,313.621L261.749,313.094L263.331,313.094L263.331,312.038L263.859,312.038L263.859,311.512L263.331,311.512L263.331,309.402L262.276,309.402L262.276,310.456L261.222,310.456L261.222,310.984L260.694,310.984L260.694,311.512L260.167,311.512L260.167,312.038L259.112,312.038L259.112,312.566L257.53,312.566L257.53,313.094L257.003,313.094L257.003,313.621L255.421,313.621L255.421,314.148L254.366,314.148L254.366,315.203L244.874,315.203L244.874,314.676L243.819,314.676L243.819,314.148L241.182,314.148L241.182,313.621L240.655,313.621L240.655,313.094L240.127,313.094L240.127,312.038L239.073,312.038L239.073,311.512L238.545,311.512L238.545,310.984L238.018,310.984L238.018,310.456L237.491,310.456L237.491,309.929L236.963,309.929L236.963,308.874L235.909,308.874L235.909,308.347L235.381,308.347L235.381,307.292L234.327,307.292L234.327,306.765L233.799,306.765L233.799,305.71L233.271,305.71L233.271,303.601L232.217,303.601L232.217,302.019L231.689,302.019L231.689,292.527L232.217,292.527L232.217,289.89L232.744,289.89L232.744,289.363L233.271,289.363L233.271,288.307L233.799,288.307L233.799,286.725L234.854,286.725L234.854,285.671L235.381,285.671L235.381,285.143L235.909,285.143L235.909,284.089L236.436,284.089L236.436,283.561L236.963,283.561L236.963,283.034L238.018,283.034L238.018,282.507L238.545,282.507L238.545,281.979L240.127,281.979L240.127,281.452L241.182,281.452L241.182,280.925L242.764,280.925L242.764,280.397L244.346,280.397L244.346,279.87L245.928,279.87L245.928,279.343L252.256,279.343L252.256,279.87L256.476,279.87L256.476,280.397L257.53,280.397L257.53,280.925L258.585,280.925L258.585,281.452L259.112,281.452L259.112,282.507L260.167,282.507L260.167,283.561L261.222,283.561L261.222,284.089L261.749,284.089L261.749,284.616L262.276,284.616L262.276,285.143L264.913,285.143L264.913,282.507L263.331,282.507L263.331,281.452L262.804,281.452L262.804,280.925L261.222,280.925L261.222,280.397L260.694,280.397L260.694,279.87L260.167,279.87L260.167,279.343L259.112,279.343L259.112,278.288L258.585,278.288L258.585,277.76L254.894,277.76L254.894,277.233L253.312,277.233L253.312,276.178L244.346,276.178L244.346,277.233L243.819,277.233L243.819,277.76L240.655,277.76L240.655,278.288L240.127,278.288L240.127,278.815L239.073,278.815L239.073,279.343L237.491,279.343L237.491,280.397L236.963,280.397L236.963,280.925L235.909,280.925L235.909,281.979L235.381,281.979L235.381,282.507L233.799,282.507L233.799,283.561L233.271,283.561L233.271,284.089L232.744,284.089L232.744,286.198L231.163,286.198Z" style="fill:rgb(28,25,23);"/>
        <path d="M282.844,352.118L282.844,352.646L282.316,352.646L282.316,353.173L281.261,353.173L281.261,353.7L262.276,353.7L262.276,356.337L264.913,356.337L264.913,356.864L265.441,356.864L265.441,377.431L267.55,377.431L267.55,355.282L268.077,355.282L268.077,355.81L281.789,355.81L281.789,355.282L283.898,355.282L283.898,354.755L284.953,354.755L284.953,354.228L286.008,354.228L286.008,353.173L286.535,353.173L286.535,352.646L287.59,352.646L287.59,352.118L288.117,352.118L288.117,351.591L288.644,351.591L288.644,351.064L289.172,351.064L289.172,349.482L289.699,349.482L289.699,346.317L290.754,346.317L290.754,327.859L291.281,327.859L291.281,327.332L291.808,327.332L291.808,326.805L299.192,326.805L299.192,326.277L300.774,326.277L300.774,323.641L300.246,323.641L300.246,323.113L299.719,323.113L299.719,320.477L299.192,320.477L299.192,318.894L298.664,318.894L298.664,317.312L298.137,317.312L298.137,315.73L297.61,315.73L297.61,315.203L297.082,315.203L297.082,314.148L296.555,314.148L296.555,312.566L296.028,312.566L296.028,310.456L295.5,310.456L295.5,309.402L294.972,309.402L294.972,308.347L294.445,308.347L294.445,305.71L293.918,305.71L293.918,304.656L293.39,304.656L293.39,304.128L292.863,304.128L292.863,303.601L291.808,303.601L291.808,303.074L291.281,303.074L291.281,305.183L291.808,305.183L291.808,308.874L292.336,308.874L292.336,309.929L292.863,309.929L292.863,310.456L293.39,310.456L293.39,312.566L293.918,312.566L293.918,314.676L295.5,314.676L295.5,316.785L296.028,316.785L296.028,317.312L296.555,317.312L296.555,318.367L297.082,318.367L297.082,321.531L298.137,321.531L298.137,324.695L297.61,324.695L297.61,325.223L289.172,325.223L289.172,325.75L288.644,325.75L288.644,347.372L287.59,347.372L287.59,348.426L287.062,348.426L287.062,350.008L285.48,350.008L285.48,352.118L282.844,352.118Z" style="fill:rgb(28,25,23);"/>
        <path d="M309.739,276.178L309.739,283.034L309.211,283.034L309.211,284.089L308.157,284.089L308.157,284.616L307.629,284.616L307.629,286.198L307.102,286.198L307.102,287.253L306.575,287.253L306.575,288.307L306.047,288.307L306.047,289.89L305.52,289.89L305.52,290.417L304.465,290.417L304.465,290.945L303.938,290.945L303.938,291.472L303.411,291.472L303.411,291.999L302.883,291.999L302.883,292.527L301.301,292.527L301.301,293.054L300.774,293.054L300.774,293.581L300.246,293.581L300.246,294.109L298.137,294.109L298.137,294.636L297.082,294.636L297.082,295.163L289.699,295.163L289.699,295.691L290.226,295.691L290.226,296.746L289.699,296.746L289.699,297.273L289.172,297.273L289.172,297.8L289.699,297.8L289.699,298.328L297.082,298.328L297.082,297.8L297.61,297.8L297.61,297.273L299.192,297.273L299.192,296.746L302.356,296.746L302.356,296.218L303.411,296.218L303.411,295.691L304.465,295.691L304.465,295.163L304.993,295.163L304.993,294.109L306.047,294.109L306.047,292.527L306.575,292.527L306.575,291.999L307.629,291.999L307.629,291.472L308.684,291.472L308.684,290.945L309.211,290.945L309.211,290.417L309.739,290.417L309.739,289.363L310.266,289.363L310.266,288.835L310.793,288.835L310.793,286.725L311.321,286.725L311.321,284.089L311.848,284.089L311.848,283.034L312.375,283.034L312.375,277.76L311.321,277.76L311.321,273.542L310.793,273.542L310.793,273.014L310.266,273.014L310.266,276.178L309.739,276.178Z" style="fill:rgb(28,25,23);stroke:rgb(28,25,23);stroke-width:0.22px;"/>
        <path d="M230.107,286.198L231.163,286.198L231.163,285.143L231.689,285.143L231.689,284.616L232.744,284.616L232.744,284.089L233.271,284.089L233.271,283.561L233.799,283.561L233.799,282.507L235.381,282.507L235.381,281.979L235.909,281.979L235.909,280.925L236.963,280.925L236.963,280.397L237.491,280.397L237.491,279.343L239.073,279.343L239.073,278.815L240.127,278.815L240.127,278.288L240.655,278.288L240.655,277.76L243.819,277.76L243.819,277.233L244.346,277.233L244.346,276.178L253.312,276.178L253.312,277.233L254.894,277.233L254.894,277.76L258.585,277.76L258.585,278.288L259.112,278.288L259.112,279.343L260.167,279.343L260.167,279.87L260.694,279.87L260.694,280.397L261.222,280.397L261.222,280.925L262.804,280.925L262.804,281.452L263.331,281.452L263.331,282.507L264.913,282.507L264.913,285.143L262.276,285.143L262.276,284.616L261.749,284.616L261.749,284.089L261.222,284.089L261.222,283.561L260.167,283.561L260.167,282.507L259.112,282.507L259.112,281.452L258.585,281.452L258.585,280.925L257.53,280.925L257.53,280.397L256.476,280.397L256.476,279.87L252.256,279.87L252.256,279.343L245.928,279.343L245.928,279.87L244.346,279.87L244.346,280.397L242.764,280.397L242.764,280.925L255.421,280.925L255.421,281.452L256.476,281.452L256.476,281.979L257.003,281.979L257.003,282.507L258.058,282.507L258.058,283.034L258.585,283.034L258.585,283.561L259.112,283.561L259.112,284.089L260.167,284.089L260.167,284.616L261.222,284.616L261.222,285.143L261.749,285.143L261.749,285.671L262.276,285.671L262.276,286.198L265.441,286.198L265.441,285.671L265.968,285.671L265.968,284.616L266.495,284.616L266.495,282.507L265.968,282.507L265.968,281.979L265.441,281.979L265.441,280.925L264.913,280.925L264.913,280.397L263.859,280.397L263.859,279.87L263.331,279.87L263.331,279.343L262.804,279.343L262.804,278.815L261.222,278.815L261.222,278.288L260.167,278.288L260.167,277.233L259.112,277.233L259.112,276.706L257.53,276.706L257.53,276.178L256.476,276.178L256.476,275.651L254.366,275.651L254.366,275.124L244.346,275.124L244.346,275.651L242.764,275.651L242.764,276.178L242.237,276.178L242.237,276.706L239.6,276.706L239.6,277.233L239.073,277.233L239.073,277.76L238.545,277.76L238.545,278.288L236.963,278.288L236.963,278.815L235.381,278.815L235.381,279.87L234.854,279.87L234.854,280.397L233.799,280.397L233.799,280.925L233.271,280.925L233.271,281.452L232.217,281.452L232.217,281.979L231.689,281.979L231.689,284.089L230.635,284.089L230.635,284.616L230.107,284.616L230.107,286.198Z" style="fill:rgb(28,25,23);"/>
        <path d="M267.55,377.431L268.605,377.431L268.605,357.392L269.132,357.392L269.132,356.864L281.261,356.864L281.261,356.337L282.316,356.337L282.316,355.81L284.425,355.81L284.425,355.282L285.48,355.282L285.48,354.755L286.535,354.755L286.535,354.228L287.062,354.228L287.062,353.7L288.117,353.7L288.117,353.173L288.644,353.173L288.644,352.118L289.172,352.118L289.172,351.591L289.699,351.591L289.699,350.008L290.226,350.008L290.226,348.426L291.281,348.426L291.281,347.899L291.808,347.899L291.808,328.914L292.336,328.914L292.336,328.387L300.246,328.387L300.246,327.859L300.774,327.859L300.774,327.332L301.301,327.332L301.301,323.113L300.774,323.113L300.774,322.059L300.246,322.059L300.246,319.949L299.719,319.949L299.719,318.894L299.192,318.894L299.192,320.477L299.719,320.477L299.719,323.113L300.246,323.113L300.246,323.641L300.774,323.641L300.774,326.277L299.192,326.277L299.192,326.805L291.808,326.805L291.808,327.332L291.281,327.332L291.281,327.859L290.754,327.859L290.754,346.317L289.699,346.317L289.699,349.482L289.172,349.482L289.172,351.064L288.644,351.064L288.644,351.591L288.117,351.591L288.117,352.118L287.59,352.118L287.59,352.646L286.535,352.646L286.535,353.173L286.008,353.173L286.008,354.228L284.953,354.228L284.953,354.755L283.898,354.755L283.898,355.282L281.789,355.282L281.789,355.81L268.077,355.81L268.077,355.282L267.55,355.282L267.55,377.431Z" style="fill:rgb(28,25,23);"/>
        <path d="M268.605,377.431L268.605,377.959L267.55,377.959L267.55,378.486L296.555,378.486L296.555,377.959L297.61,377.959L297.61,376.377L298.137,376.377L298.137,356.337L298.664,356.337L298.664,354.755L309.211,354.755L309.211,354.228L309.739,354.228L309.739,353.7L312.903,353.7L312.903,353.173L314.485,353.173L314.485,352.646L315.013,352.646L315.013,351.591L315.539,351.591L315.539,351.064L314.485,351.064L314.485,352.118L313.957,352.118L313.957,352.646L310.793,352.646L310.793,353.173L309.211,353.173L309.211,353.7L298.137,353.7L298.137,354.228L297.082,354.228L297.082,354.755L296.555,354.755L296.555,377.431L268.605,377.431Z" style="fill:rgb(28,25,23);"/>
        <path d="M250.148,296.218L250.148,298.328L289.699,298.328L289.699,297.8L277.043,297.8L277.043,297.273L276.515,297.273L276.515,296.218L278.625,296.218L278.625,295.691L250.674,295.691L250.674,296.218L250.148,296.218Z" style="fill:rgb(28,25,23);"/>
        <path d="M316.067,349.482L317.121,349.482L317.121,348.426L317.649,348.426L317.649,347.899L318.177,347.899L318.177,347.372L318.703,347.372L318.703,326.277L320.286,326.277L320.286,325.75L329.251,325.75L329.251,322.586L328.724,322.586L328.724,321.531L328.196,321.531L328.196,318.367L327.669,318.367L327.669,316.785L327.142,316.785L327.142,316.258L326.614,316.258L326.614,314.148L326.087,314.148L326.087,313.621L325.032,313.621L325.032,313.094L324.505,313.094L324.505,310.984L323.977,310.984L323.977,309.929L323.45,309.929L323.45,308.874L322.923,308.874L322.923,306.765L322.395,306.765L322.395,310.984L323.45,310.984L323.45,311.512L323.977,311.512L323.977,313.621L324.505,313.621L324.505,314.148L325.032,314.148L325.032,315.203L325.559,315.203L325.559,317.312L326.087,317.312L326.087,319.422L326.614,319.422L326.614,319.949L327.142,319.949L327.142,321.004L327.669,321.004L327.669,323.641L328.196,323.641L328.196,324.695L319.231,324.695L319.231,325.223L318.177,325.223L318.177,326.277L317.649,326.277L317.649,347.372L316.067,347.372L316.067,349.482Z" style="fill:rgb(28,25,23);"/>
        <path d="M245.928,301.491L245.928,302.019L246.456,302.019L246.456,303.074L246.983,303.074L246.983,303.601L247.51,303.601L247.51,304.128L248.565,304.128L248.565,305.183L249.092,305.183L249.092,303.074L247.51,303.074L247.51,302.019L250.148,302.019L250.148,302.546L251.202,302.546L251.202,304.128L250.674,304.128L250.674,305.183L251.202,305.183L251.202,304.656L251.73,304.656L251.73,304.128L252.256,304.128L252.256,302.546L251.73,302.546L251.73,301.491L250.674,301.491L250.674,299.382L278.097,299.382L278.097,298.855L276.515,298.855L276.515,298.328L249.092,298.328L249.092,298.855L248.038,298.855L248.038,300.437L247.51,300.437L247.51,301.491L245.928,301.491Z" style="fill:rgb(28,25,23);"/>
        <path d="M244.346,293.581L244.346,294.636L243.819,294.636L243.819,295.691L242.764,295.691L242.764,298.328L243.292,298.328L243.292,298.855L243.819,298.855L243.819,300.437L244.874,300.437L244.874,300.964L245.401,300.964L245.401,301.491L247.51,301.491L247.51,300.437L248.038,300.437L248.038,298.855L249.092,298.855L249.092,298.328L250.148,298.328L250.148,296.218L248.038,296.218L248.038,292.527L248.565,292.527L248.565,291.999L250.148,291.999L250.148,291.472L248.038,291.472L248.038,290.945L247.51,290.945L247.51,292.527L245.928,292.527L245.928,293.054L245.401,293.054L245.401,293.581L244.346,293.581Z" style="fill:rgb(28,25,23);"/>
        <path d="M281.261,269.323L281.261,268.796L280.734,268.796L280.734,267.741L280.207,267.741L280.207,267.214L279.679,267.214L279.679,266.686L279.152,266.686L279.152,266.158L278.625,266.158L278.625,265.632L277.043,265.632L277.043,265.104L276.515,265.104L276.515,264.049L275.461,264.049L275.461,263.522L274.933,263.522L274.933,262.994L274.406,262.994L274.406,262.467L273.879,262.467L273.879,261.94L272.297,261.94L272.297,261.412L271.769,261.412L271.769,260.885L270.714,260.885L270.714,260.358L270.187,260.358L270.187,259.303L272.297,259.303L272.297,258.776L274.406,258.776L274.406,258.248L280.734,258.248L280.734,258.776L285.48,258.776L285.48,259.303L289.172,259.303L289.172,259.83L290.226,259.83L290.226,260.358L291.808,260.358L291.808,259.303L289.699,259.303L289.699,258.776L287.062,258.776L287.062,258.248L286.008,258.248L286.008,257.721L283.371,257.721L283.371,257.193L270.187,257.193L270.187,257.721L269.659,257.721L269.659,260.885L270.187,260.885L270.187,261.412L271.241,261.412L271.241,261.94L271.769,261.94L271.769,262.467L272.823,262.467L272.823,262.994L273.351,262.994L273.351,264.049L273.879,264.049L273.879,264.576L275.461,264.576L275.461,265.104L275.988,265.104L275.988,265.632L276.515,265.632L276.515,266.158L277.043,266.158L277.043,266.686L277.57,266.686L277.57,267.214L278.097,267.214L278.097,267.741L278.625,267.741L278.625,268.268L279.152,268.268L279.152,268.796L279.679,268.796L279.679,269.323L281.261,269.323Z" style="fill:rgb(28,25,23);stroke:rgb(28,25,23);stroke-width:0.22px;"/>
        <path d="M280.734,352.646L280.734,353.173L261.222,353.173L261.222,353.7L260.694,353.7L260.694,356.337L261.222,356.337L261.222,356.864L263.859,356.864L263.859,357.392L264.386,357.392L264.386,377.431L264.913,377.431L264.913,377.959L265.441,377.959L265.441,378.486L267.55,378.486L267.55,377.959L268.605,377.959L268.605,377.431L265.441,377.431L265.441,356.864L264.913,356.864L264.913,356.337L262.276,356.337L262.276,353.7L281.261,353.7L281.261,353.173L282.316,353.173L282.316,352.646L282.844,352.646L282.844,352.118L281.789,352.118L281.789,352.646L280.734,352.646Z" style="fill:rgb(28,25,23);"/>
        <path d="M283.898,352.118L285.48,352.118L285.48,350.008L287.062,350.008L287.062,348.426L287.59,348.426L287.59,347.372L288.644,347.372L288.644,325.75L289.172,325.75L289.172,325.223L297.61,325.223L297.61,324.695L298.137,324.695L298.137,321.531L297.082,321.531L297.082,318.367L296.555,318.367L296.555,317.312L296.028,317.312L296.028,316.785L295.5,316.785L295.5,314.676L294.445,314.676L294.445,317.312L295.5,317.312L295.5,318.894L296.028,318.894L296.028,320.477L296.555,320.477L296.555,323.641L296.028,323.641L296.028,324.168L289.172,324.168L289.172,324.695L288.644,324.695L288.644,325.223L288.117,325.223L288.117,344.735L287.59,344.735L287.59,345.79L287.062,345.79L287.062,347.899L286.535,347.899L286.535,348.426L286.008,348.426L286.008,348.954L285.48,348.954L285.48,349.482L284.953,349.482L284.953,351.064L284.425,351.064L284.425,351.591L283.898,351.591L283.898,352.118Z" style="fill:rgb(28,25,23);"/>
        <path d="M289.699,295.691L289.699,295.163L278.097,295.163L278.097,294.636L250.674,294.636L250.674,292.527L251.73,292.527L251.73,291.999L250.148,291.999L250.148,293.054L249.62,293.054L249.62,293.581L249.092,293.581L249.092,295.691L289.699,295.691Z" style="fill:rgb(28,25,23);"/>
        <path d="M236.963,308.874L236.963,308.347L236.436,308.347L236.436,307.82L235.909,307.82L235.909,306.765L235.381,306.765L235.381,306.238L234.327,306.238L234.327,302.019L233.799,302.019L233.799,300.964L233.271,300.964L233.271,299.91L232.744,299.91L232.744,292.527L233.271,292.527L233.271,291.999L233.799,291.999L233.799,290.945L234.327,290.945L234.327,288.835L234.854,288.835L234.854,287.78L235.381,287.78L235.381,287.253L235.909,287.253L235.909,285.671L236.963,285.671L236.963,285.143L237.491,285.143L237.491,284.616L238.018,284.616L238.018,284.089L239.073,284.089L239.073,282.507L240.655,282.507L240.655,281.979L241.709,281.979L241.709,281.452L242.764,281.452L242.764,280.925L241.182,280.925L241.182,281.452L240.127,281.452L240.127,281.979L238.545,281.979L238.545,282.507L238.018,282.507L238.018,283.034L236.963,283.034L236.963,283.561L236.436,283.561L236.436,284.089L235.909,284.089L235.909,285.143L235.381,285.143L235.381,285.671L234.854,285.671L234.854,286.725L233.799,286.725L233.799,288.307L233.271,288.307L233.271,289.363L232.744,289.363L232.744,289.89L232.217,289.89L232.217,292.527L231.689,292.527L231.689,302.019L232.217,302.019L232.217,303.601L233.271,303.601L233.271,305.71L233.799,305.71L233.799,306.765L234.327,306.765L234.327,307.292L235.381,307.292L235.381,308.347L235.909,308.347L235.909,308.874L236.963,308.874Z" style="fill:rgb(28,25,23);"/>
        <path d="M262.804,314.148L262.276,314.148L262.276,314.676L261.749,314.676L261.749,315.203L260.694,315.203L260.694,315.73L259.112,315.73L259.112,316.258L258.585,316.258L258.585,316.785L257.53,316.785L257.53,317.312L255.421,317.312L255.421,317.84L253.312,317.84L253.312,318.367L246.456,318.367L246.456,317.312L244.346,317.312L244.346,316.785L241.182,316.785L241.182,316.258L239.6,316.258L239.6,315.73L238.545,315.73L238.545,315.203L238.018,315.203L238.018,314.676L237.491,314.676L237.491,314.148L236.436,314.148L236.436,315.203L236.963,315.203L236.963,315.73L237.491,315.73L237.491,316.258L238.018,316.258L238.018,316.785L238.545,316.785L238.545,317.312L239.073,317.312L239.073,317.84L240.127,317.84L240.127,318.367L241.709,318.367L241.709,318.894L255.421,318.894L255.421,318.367L257.53,318.367L257.53,317.84L259.112,317.84L259.112,317.312L260.694,317.312L260.694,316.258L261.222,316.258L261.222,315.73L262.276,315.73L262.276,315.203L262.804,315.203L262.804,314.148Z" style="fill:rgb(28,25,23);"/>
        <path d="M308.684,284.089L309.211,284.089L309.211,283.034L309.739,283.034L309.739,276.178L309.211,276.178L309.211,274.596L308.684,274.596L308.684,271.432L308.157,271.432L308.157,270.378L307.629,270.378L307.629,269.323L307.102,269.323L307.102,268.796L306.575,268.796L306.575,268.268L305.52,268.268L305.52,267.214L304.993,267.214L304.993,266.686L303.938,266.686L303.938,265.632L303.411,265.632L303.411,265.104L301.301,265.104L301.301,264.576L300.774,264.576L300.774,264.049L300.246,264.049L300.246,263.522L299.192,263.522L299.192,262.994L298.664,262.994L298.664,261.94L296.028,261.94L296.028,261.412L295.5,261.412L295.5,260.885L293.918,260.885L293.918,260.358L291.808,260.358L291.808,260.885L293.39,260.885L293.39,261.412L294.972,261.412L294.972,261.94L295.5,261.94L295.5,262.467L296.555,262.467L296.555,262.994L297.082,262.994L297.082,263.522L298.137,263.522L298.137,264.049L299.192,264.049L299.192,264.576L299.719,264.576L299.719,265.104L300.246,265.104L300.246,265.632L301.828,265.632L301.828,266.158L302.356,266.158L302.356,266.686L303.411,266.686L303.411,267.214L304.465,267.214L304.465,268.268L304.993,268.268L304.993,268.796L305.52,268.796L305.52,269.323L306.575,269.323L306.575,270.378L307.102,270.378L307.102,271.432L307.629,271.432L307.629,271.96L308.157,271.96L308.157,276.706L308.684,276.706L308.684,284.089Z" style="fill:rgb(28,25,23);stroke:rgb(28,25,23);stroke-width:0.22px;"/>
        <path d="M234.327,311.512L234.327,309.929L233.799,309.929L233.799,309.402L232.744,309.402L232.744,308.347L231.689,308.347L231.689,307.82L231.163,307.82L231.163,304.656L230.635,304.656L230.635,303.601L230.107,303.601L230.107,303.074L229.581,303.074L229.581,301.491L229.053,301.491L229.053,292.527L229.581,292.527L229.581,289.89L230.107,289.89L230.107,289.363L230.635,289.363L230.635,287.78L231.163,287.78L231.163,286.198L230.107,286.198L230.107,287.78L229.581,287.78L229.581,288.835L229.053,288.835L229.053,291.472L228.525,291.472L228.525,291.999L227.999,291.999L227.999,293.054L227.471,293.054L227.471,300.437L227.999,300.437L227.999,300.964L228.525,300.964L228.525,303.074L229.053,303.074L229.053,304.656L229.581,304.656L229.581,305.183L230.107,305.183L230.107,306.765L230.635,306.765L230.635,308.874L232.217,308.874L232.217,309.929L233.271,309.929L233.271,310.456L233.799,310.456L233.799,311.512L234.327,311.512Z" style="fill:rgb(28,25,23);"/>
        <path d="M258.058,311.512L258.058,312.038L257.003,312.038L257.003,312.566L256.476,312.566L256.476,313.094L254.894,313.094L254.894,313.621L243.819,313.621L243.819,313.094L242.237,313.094L242.237,312.566L241.182,312.566L241.182,312.038L240.127,312.038L240.127,313.094L240.655,313.094L240.655,313.621L241.182,313.621L241.182,314.148L243.819,314.148L243.819,314.676L244.874,314.676L244.874,315.203L254.366,315.203L254.366,314.148L255.421,314.148L255.421,313.621L257.003,313.621L257.003,313.094L257.53,313.094L257.53,312.566L259.112,312.566L259.112,312.038L260.167,312.038L260.167,311.512L260.694,311.512L260.694,310.984L261.222,310.984L261.222,310.456L262.276,310.456L262.276,308.874L261.222,308.874L261.222,309.402L260.694,309.402L260.694,309.929L260.167,309.929L260.167,310.456L258.585,310.456L258.585,311.512L258.058,311.512Z" style="fill:rgb(28,25,23);"/>
        <path d="M236.436,314.148L236.436,313.621L235.381,313.621L235.381,313.094L234.854,313.094L234.854,312.566L234.327,312.566L234.327,311.512L233.799,311.512L233.799,310.456L233.271,310.456L233.271,309.929L232.217,309.929L232.217,308.874L230.635,308.874L230.635,306.765L230.107,306.765L230.107,305.183L229.581,305.183L229.581,304.656L229.053,304.656L229.053,303.074L228.525,303.074L228.525,300.964L227.999,300.964L227.999,300.437L227.471,300.437L227.471,293.054L227.999,293.054L227.999,291.999L228.525,291.999L228.525,291.472L229.053,291.472L229.053,288.835L229.581,288.835L229.581,287.78L230.107,287.78L230.107,286.725L228.525,286.725L228.525,289.89L227.999,289.89L227.999,290.417L226.943,290.417L226.943,300.964L227.471,300.964L227.471,303.074L227.999,303.074L227.999,303.601L228.525,303.601L228.525,306.238L229.053,306.238L229.053,307.292L229.581,307.292L229.581,308.347L230.107,308.347L230.107,309.402L230.635,309.402L230.635,309.929L231.163,309.929L231.163,310.456L231.689,310.456L231.689,310.984L232.217,310.984L232.217,312.038L233.271,312.038L233.271,312.566L233.799,312.566L233.799,313.094L234.327,313.094L234.327,313.621L234.854,313.621L234.854,314.148L236.436,314.148Z" style="fill:rgb(28,25,23);"/>
        <path d="M289.172,297.8L289.172,297.273L289.699,297.273L289.699,296.746L290.226,296.746L290.226,295.691L278.625,295.691L278.625,296.218L276.515,296.218L276.515,297.273L277.043,297.273L277.043,297.8L289.172,297.8Z" style="fill:rgb(28,25,23);stroke:rgb(28,25,23);stroke-width:0.22px;"/>
        <path d="M276.515,298.328L276.515,298.855L289.699,298.855L289.699,299.382L299.192,299.382L299.192,298.855L300.774,298.855L300.774,298.328L301.301,298.328L301.301,297.273L303.411,297.273L303.411,296.746L303.938,296.746L303.938,296.218L304.993,296.218L304.993,295.163L304.465,295.163L304.465,295.691L303.411,295.691L303.411,296.218L302.356,296.218L302.356,296.746L299.192,296.746L299.192,297.273L297.61,297.273L297.61,297.8L297.082,297.8L297.082,298.328L276.515,298.328Z" style="fill:rgb(28,25,23);stroke:rgb(28,25,23);stroke-width:0.22px;"/>
        <path d="M252.256,304.128L251.73,304.128L251.73,304.656L251.202,304.656L251.202,305.183L248.565,305.183L248.565,304.128L247.51,304.128L247.51,303.601L246.983,303.601L246.983,303.074L246.456,303.074L246.456,302.019L245.928,302.019L245.928,301.491L245.401,301.491L245.401,300.964L244.874,300.964L244.874,300.437L243.819,300.437L243.819,298.855L242.237,298.855L242.237,298.328L241.709,298.328L241.709,295.163L242.237,295.163L242.237,294.636L243.292,294.636L243.292,293.581L241.182,293.581L241.182,294.109L240.127,294.109L240.127,298.328L240.655,298.328L240.655,298.855L241.709,298.855L241.709,299.382L242.237,299.382L242.237,299.91L242.764,299.91L242.764,300.437L243.292,300.437L243.292,300.964L243.819,300.964L243.819,301.491L244.346,301.491L244.346,302.019L244.874,302.019L244.874,302.546L245.401,302.546L245.401,303.074L245.928,303.074L245.928,303.601L246.456,303.601L246.456,304.128L246.983,304.128L246.983,305.183L247.51,305.183L247.51,305.71L248.038,305.71L248.038,306.238L251.202,306.238L251.202,305.71L252.256,305.71L252.256,304.128Z" style="fill:rgb(28,25,23);"/>
        <path d="M309.739,290.417L310.793,290.417L310.793,289.89L311.321,289.89L311.321,289.363L311.848,289.363L311.848,286.725L312.375,286.725L312.375,286.198L312.903,286.198L312.903,282.507L313.43,282.507L313.43,276.706L312.903,276.706L312.903,273.014L312.375,273.014L312.375,272.487L311.848,272.487L311.848,270.905L311.321,270.905L311.321,273.014L311.848,273.014L311.848,274.596L312.375,274.596L312.375,283.034L311.848,283.034L311.848,284.089L311.321,284.089L311.321,286.725L310.793,286.725L310.793,288.835L310.266,288.835L310.266,289.363L309.739,289.363L309.739,290.417Z" style="fill:rgb(28,25,23);stroke:rgb(28,25,23);stroke-width:0.22px;"/>
        <path d="M281.261,275.651L281.789,275.651L281.789,277.233L282.316,277.233L282.316,277.76L282.844,277.76L282.844,278.815L283.371,278.815L283.371,279.343L283.898,279.343L283.898,280.925L284.953,280.925L284.953,284.616L285.48,284.616L285.48,286.198L286.008,286.198L286.008,286.725L286.535,286.725L286.535,283.034L286.008,283.034L286.008,282.507L285.48,282.507L285.48,280.397L284.953,280.397L284.953,278.815L283.898,278.815L283.898,277.233L283.371,277.233L283.371,275.651L282.316,275.651L282.316,275.124L281.789,275.124L281.789,274.069L280.734,274.069L280.734,273.542L280.207,273.542L280.207,271.96L279.152,271.96L279.152,270.378L278.097,270.378L278.097,272.487L278.625,272.487L278.625,273.014L279.152,273.014L279.152,274.069L279.679,274.069L279.679,274.596L281.261,274.596L281.261,275.651Z" style="fill:rgb(28,25,23);stroke:rgb(28,25,23);stroke-width:0.22px;"/>
        <path d="M246.456,317.84L246.456,318.367L253.312,318.367L253.312,317.84L255.421,317.84L255.421,317.312L257.53,317.312L257.53,316.785L258.585,316.785L258.585,316.258L259.112,316.258L259.112,315.73L260.694,315.73L260.694,315.203L261.749,315.203L261.749,314.676L262.276,314.676L262.276,314.148L262.804,314.148L262.804,313.621L263.331,313.621L263.331,313.094L261.749,313.094L261.749,313.621L260.167,313.621L260.167,314.148L259.64,314.148L259.64,314.676L258.058,314.676L258.058,315.203L256.476,315.203L256.476,316.258L254.894,316.258L254.894,316.785L254.366,316.785L254.366,317.312L251.73,317.312L251.73,317.84L246.456,317.84Z" style="fill:rgb(28,25,23);"/>
        <path d="M298.137,315.73L298.137,313.094L297.082,313.094L297.082,310.984L296.555,310.984L296.555,307.292L296.028,307.292L296.028,306.765L295.5,306.765L295.5,305.71L294.972,305.71L294.972,304.656L294.445,304.656L294.445,303.074L293.918,303.074L293.918,302.546L293.39,302.546L293.39,302.019L292.336,302.019L292.336,302.546L291.808,302.546L291.808,303.601L292.863,303.601L292.863,304.128L293.39,304.128L293.39,304.656L293.918,304.656L293.918,305.71L294.445,305.71L294.445,308.347L294.972,308.347L294.972,309.402L295.5,309.402L295.5,310.456L296.028,310.456L296.028,312.566L296.555,312.566L296.555,314.148L297.082,314.148L297.082,315.203L297.61,315.203L297.61,315.73L298.137,315.73Z" style="fill:rgb(28,25,23);"/>
        <path d="M258.058,311.512L258.585,311.512L258.585,310.456L260.167,310.456L260.167,309.929L260.694,309.929L260.694,309.402L261.222,309.402L261.222,308.874L261.749,308.874L261.749,307.82L264.913,307.82L264.913,308.347L265.441,308.347L265.441,311.512L264.913,311.512L264.913,312.038L263.331,312.038L263.331,313.621L262.804,313.621L262.804,314.148L263.859,314.148L263.859,313.621L264.386,313.621L264.386,312.566L265.441,312.566L265.441,312.038L265.968,312.038L265.968,310.456L266.495,310.456L266.495,308.347L265.968,308.347L265.968,307.82L265.441,307.82L265.441,307.292L264.913,307.292L264.913,306.765L261.749,306.765L261.749,307.292L261.222,307.292L261.222,308.347L260.694,308.347L260.694,308.874L260.167,308.874L260.167,309.402L259.64,309.402L259.64,309.929L258.058,309.929L258.058,311.512Z" style="fill:rgb(28,25,23);"/>
        <path d="M243.819,293.581L244.346,293.581L244.346,293.054L244.874,293.054L244.874,292.527L245.401,292.527L245.401,291.999L246.456,291.999L246.456,290.945L246.983,290.945L246.983,290.417L247.51,290.417L247.51,289.89L248.038,289.89L248.038,289.363L248.565,289.363L248.565,288.835L250.674,288.835L250.674,289.363L251.73,289.363L251.73,291.999L252.784,291.999L252.784,288.835L252.256,288.835L252.256,288.307L250.148,288.307L250.148,287.78L249.092,287.78L249.092,288.307L248.038,288.307L248.038,288.835L247.51,288.835L247.51,289.363L246.983,289.363L246.983,289.89L246.456,289.89L246.456,290.417L245.928,290.417L245.928,290.945L244.874,290.945L244.874,291.999L244.346,291.999L244.346,292.527L243.819,292.527L243.819,293.581Z" style="fill:rgb(28,25,23);"/>
        <path d="M221.143,270.378L221.67,270.378L221.67,269.85L222.197,269.85L222.197,269.323L222.725,269.323L222.725,268.796L223.252,268.796L223.252,268.268L223.779,268.268L223.779,267.741L224.307,267.741L224.307,267.214L224.834,267.214L224.834,266.686L225.361,266.686L225.361,266.158L226.416,266.158L226.416,265.632L227.471,265.632L227.471,264.576L228.525,264.576L228.525,264.049L230.107,264.049L230.107,263.522L230.635,263.522L230.635,262.994L231.163,262.994L231.163,262.467L231.689,262.467L231.689,261.94L230.107,261.94L230.107,262.994L229.581,262.994L229.581,263.522L227.471,263.522L227.471,264.049L226.943,264.049L226.943,264.576L226.416,264.576L226.416,265.104L225.361,265.104L225.361,265.632L223.779,265.632L223.779,266.686L223.252,266.686L223.252,267.741L222.725,267.741L222.725,268.268L222.197,268.268L222.197,268.796L221.67,268.796L221.67,269.323L221.143,269.323L221.143,270.378Z" style="fill:rgb(28,25,23);"/>
        <path d="M244.346,293.581L245.401,293.581L245.401,293.054L245.928,293.054L245.928,292.527L247.51,292.527L247.51,290.945L248.038,290.945L248.038,290.417L248.565,290.417L248.565,289.89L250.148,289.89L250.148,290.417L250.674,290.417L250.674,291.999L251.73,291.999L251.73,289.363L250.674,289.363L250.674,288.835L248.565,288.835L248.565,289.363L248.038,289.363L248.038,289.89L247.51,289.89L247.51,290.417L246.983,290.417L246.983,290.945L246.456,290.945L246.456,291.999L245.401,291.999L245.401,292.527L244.874,292.527L244.874,293.054L244.346,293.054L244.346,293.581Z" style="fill:rgb(28,25,23);"/>
        <path d="M219.561,266.158L219.561,267.214L219.033,267.214L219.033,268.268L217.978,268.268L217.978,269.323L219.033,269.323L219.033,268.796L219.561,268.796L219.561,267.741L220.615,267.741L220.615,266.686L221.143,266.686L221.143,266.158L222.197,266.158L222.197,265.632L222.725,265.632L222.725,264.576L224.307,264.576L224.307,262.994L223.252,262.994L223.252,264.049L221.143,264.049L221.143,264.576L220.615,264.576L220.615,266.158L219.561,266.158Z" style="fill:rgb(28,25,23);"/>
        <path d="M207.958,287.78L209.013,287.78L209.013,286.198L209.54,286.198L209.54,284.089L210.068,284.089L210.068,282.507L210.595,282.507L210.595,281.452L211.122,281.452L211.122,279.87L210.595,279.87L210.595,280.397L210.068,280.397L210.068,281.452L209.54,281.452L209.54,282.507L209.013,282.507L209.013,284.616L208.486,284.616L208.486,285.143L207.958,285.143L207.958,287.78Z" style="fill:rgb(28,25,23);"/>
        <path d="M308.157,273.014L308.157,271.96L307.629,271.96L307.629,271.432L307.102,271.432L307.102,270.378L306.575,270.378L306.575,269.323L305.52,269.323L305.52,268.796L304.993,268.796L304.993,268.268L304.465,268.268L304.465,267.214L303.411,267.214L303.411,266.686L302.356,266.686L302.356,266.158L301.828,266.158L301.828,265.632L300.774,265.632L300.774,266.158L301.301,266.158L301.301,266.686L301.828,266.686L301.828,267.214L302.356,267.214L302.356,267.741L303.411,267.741L303.411,268.268L303.938,268.268L303.938,268.796L304.465,268.796L304.465,269.323L304.993,269.323L304.993,269.85L305.52,269.85L305.52,270.378L306.047,270.378L306.047,270.905L306.575,270.905L306.575,271.96L307.102,271.96L307.102,272.487L307.629,272.487L307.629,273.014L308.157,273.014Z" style="fill:rgb(28,25,23);stroke:rgb(28,25,23);stroke-width:0.22px;"/>
        <path d="M229.053,259.303L229.053,259.83L228.525,259.83L228.525,260.358L227.999,260.358L227.999,260.885L226.416,260.885L226.416,261.412L229.053,261.412L229.053,260.885L229.581,260.885L229.581,259.83L231.163,259.83L231.163,259.303L232.744,259.303L232.744,258.248L234.327,258.248L234.327,257.721L231.163,257.721L231.163,258.776L229.581,258.776L229.581,259.303L229.053,259.303Z" style="fill:rgb(28,25,23);"/>
        <path d="M249.092,305.183L250.674,305.183L250.674,304.128L251.202,304.128L251.202,302.546L250.148,302.546L250.148,302.019L247.51,302.019L247.51,303.074L249.092,303.074L249.092,305.183Z" style="fill:rgb(28,25,23);"/>
        <path d="M236.436,314.148L237.491,314.148L237.491,314.676L238.018,314.676L238.018,315.203L238.545,315.203L238.545,315.73L239.6,315.73L239.6,316.258L241.182,316.258L241.182,315.73L240.655,315.73L240.655,315.203L239.6,315.203L239.6,314.676L238.545,314.676L238.545,314.148L238.018,314.148L238.018,313.621L237.491,313.621L237.491,313.094L235.909,313.094L235.909,312.038L235.381,312.038L235.381,311.512L234.327,311.512L234.327,312.566L234.854,312.566L234.854,313.094L235.381,313.094L235.381,313.621L236.436,313.621L236.436,314.148Z" style="fill:rgb(28,25,23);"/>
        <path d="M304.993,295.163L305.52,295.163L305.52,294.636L306.575,294.636L306.575,294.109L307.102,294.109L307.102,293.581L307.629,293.581L307.629,293.054L308.157,293.054L308.157,292.527L308.684,292.527L308.684,291.999L309.211,291.999L309.211,291.472L309.739,291.472L309.739,290.417L309.211,290.417L309.211,290.945L308.684,290.945L308.684,291.472L307.629,291.472L307.629,291.999L306.575,291.999L306.575,292.527L306.047,292.527L306.047,294.109L304.993,294.109L304.993,295.163Z" style="fill:rgb(28,25,23);stroke:rgb(28,25,23);stroke-width:0.22px;"/>
        <path d="M243.292,298.855L243.292,298.328L242.764,298.328L242.764,295.691L243.819,295.691L243.819,294.636L244.346,294.636L244.346,293.581L243.292,293.581L243.292,294.636L242.237,294.636L242.237,295.163L241.709,295.163L241.709,298.328L242.237,298.328L242.237,298.855L243.292,298.855Z" style="fill:rgb(28,25,23);"/>
        <path d="M250.674,295.691L249.092,295.691L249.092,293.581L249.62,293.581L249.62,293.054L250.148,293.054L250.148,291.999L248.565,291.999L248.565,292.527L248.038,292.527L248.038,296.218L250.674,296.218L250.674,295.691Z" style="fill:rgb(28,25,23);"/>
        <path d="M263.859,311.512L263.859,312.038L264.913,312.038L264.913,311.512L265.441,311.512L265.441,308.347L264.913,308.347L264.913,307.82L261.749,307.82L261.749,308.874L264.913,308.874L264.913,310.456L264.386,310.456L264.386,311.512L263.859,311.512Z" style="fill:rgb(28,25,23);"/>
        <path d="M275.461,267.741L275.461,266.686L274.406,266.686L274.406,265.632L273.879,265.632L273.879,265.104L272.297,265.104L272.297,264.576L271.769,264.576L271.769,264.049L270.714,264.049L270.714,264.576L271.241,264.576L271.241,265.104L271.769,265.104L271.769,265.632L272.297,265.632L272.297,266.158L272.823,266.158L272.823,266.686L273.351,266.686L273.351,267.214L274.406,267.214L274.406,267.741L275.461,267.741Z" style="fill:rgb(28,25,23);stroke:rgb(28,25,23);stroke-width:0.22px;"/>
        <path d="M305.52,264.576L305.52,264.049L304.465,264.049L304.465,262.467L302.883,262.467L302.883,261.94L301.828,261.94L301.828,261.412L301.301,261.412L301.301,262.467L301.828,262.467L301.828,262.994L302.883,262.994L302.883,264.049L303.411,264.049L303.411,264.576L305.52,264.576Z" style="fill:rgb(28,25,23);stroke:rgb(28,25,23);stroke-width:0.22px;"/>
        <path d="M286.535,286.725L286.535,287.78L288.644,287.78L288.644,288.307L290.226,288.307L290.226,283.034L289.699,283.034L289.699,287.253L287.062,287.253L287.062,286.725L286.535,286.725Z" style="fill:rgb(28,25,23);stroke:rgb(28,25,23);stroke-width:0.22px;"/>
        <path d="M297.082,259.303L297.082,258.776L296.555,258.776L296.555,258.248L296.028,258.248L296.028,257.721L292.863,257.721L292.863,258.248L293.39,258.248L293.39,258.776L294.445,258.776L294.445,259.303L297.082,259.303Z" style="fill:rgb(28,25,23);stroke:rgb(28,25,23);stroke-width:0.22px;"/>
        <path d="M273.879,261.94L273.879,261.412L273.351,261.412L273.351,260.885L272.297,260.885L272.297,260.358L271.769,260.358L271.769,259.83L272.297,259.83L272.297,259.303L270.187,259.303L270.187,260.358L270.714,260.358L270.714,260.885L271.769,260.885L271.769,261.412L272.297,261.412L272.297,261.94L273.879,261.94Z" style="fill:rgb(28,25,23);stroke:rgb(28,25,23);stroke-width:0.22px;"/>
        <path d="M284.953,273.542L284.953,272.487L283.898,272.487L283.898,270.378L282.844,270.378L282.844,269.85L282.316,269.85L282.316,269.323L281.261,269.323L281.261,270.378L281.789,270.378L281.789,270.905L283.371,270.905L283.371,273.014L284.425,273.014L284.425,273.542L284.953,273.542Z" style="fill:rgb(28,25,23);stroke:rgb(28,25,23);stroke-width:0.22px;"/>
        <path d="M262.276,308.874L262.276,309.402L263.331,309.402L263.331,311.512L264.386,311.512L264.386,310.456L264.913,310.456L264.913,308.874L262.276,308.874Z" style="fill:rgb(28,25,23);"/>
        <path d="M250.148,291.999L250.674,291.999L250.674,290.417L250.148,290.417L250.148,289.89L248.565,289.89L248.565,290.417L248.038,290.417L248.038,291.472L250.148,291.472L250.148,291.999Z" style="fill:rgb(28,25,23);"/>
        <path d="M301.301,261.412L301.301,260.885L300.774,260.885L300.774,260.358L300.246,260.358L300.246,259.83L299.719,259.83L299.719,259.303L297.61,259.303L297.61,259.83L298.137,259.83L298.137,260.358L299.192,260.358L299.192,260.885L299.719,260.885L299.719,261.412L301.301,261.412Z" style="fill:rgb(28,25,23);stroke:rgb(28,25,23);stroke-width:0.22px;"/>
        <path d="M291.808,307.292L291.808,305.183L291.281,305.183L291.281,303.074L290.754,303.074L290.754,303.601L290.226,303.601L290.226,305.183L290.754,305.183L290.754,306.238L291.281,306.238L291.281,307.292L291.808,307.292Z" style="fill:rgb(28,25,23);stroke:rgb(28,25,23);stroke-width:0.22px;"/>
        <path d="M231.163,286.198L232.744,286.198L232.744,284.616L231.689,284.616L231.689,285.143L231.163,285.143L231.163,286.198Z" style="fill:rgb(28,25,23);"/>
        <path d="M240.127,312.038L240.127,311.512L239.6,311.512L239.6,310.984L239.073,310.984L239.073,310.456L238.545,310.456L238.545,309.929L237.491,309.929L237.491,310.456L238.018,310.456L238.018,310.984L238.545,310.984L238.545,311.512L239.073,311.512L239.073,312.038L240.127,312.038Z" style="fill:rgb(28,25,23);"/>
        <path d="M307.629,266.158L307.629,265.632L307.102,265.632L307.102,265.104L306.575,265.104L306.575,264.576L306.047,264.576L306.047,266.158L307.629,266.158Z" style="fill:rgb(28,25,23);stroke:rgb(28,25,23);stroke-width:0.22px;"/>
        <path d="M276.515,269.85L277.043,269.85L277.043,270.378L277.57,270.378L277.57,268.796L275.988,268.796L275.988,269.323L276.515,269.323L276.515,269.85Z" style="fill:rgb(28,25,23);stroke:rgb(28,25,23);stroke-width:0.22px;"/>
        <rect x="280.207" y="274.596" width="1.054" height="1.055" style="fill:rgb(28,25,23);stroke:rgb(28,25,23);stroke-width:0.22px;"/>
    </g>
</svg>
